<svg width="60" height="60" viewBox="0 0 60 60" fill="none" xmlns="http://www.w3.org/2000/svg">
<g id="Frame 335044">
<rect width="60" height="60" rx="30" fill="white"/>
<g id="Communication / call">
<path id="Vector" d="M42.4002 31.6667C42.0335 31.6667 41.6502 31.55 41.2835 31.4667C40.541 31.303 39.8113 31.0858 39.1002 30.8167C38.327 30.5354 37.4771 30.55 36.714 30.8577C35.951 31.1654 35.3286 31.7444 34.9668 32.4833L34.6002 33.2333C32.9768 32.3303 31.4851 31.2087 30.1668 29.9C28.8581 28.5817 27.7365 27.09 26.8335 25.4667L27.5335 25C28.2724 24.6382 28.8515 24.0159 29.1592 23.2528C29.4668 22.4898 29.4815 21.6399 29.2002 20.8667C28.9355 20.154 28.7184 19.4247 28.5502 18.6833C28.4668 18.3167 28.4002 17.9333 28.3502 17.55C28.1478 16.376 27.5329 15.3129 26.6162 14.5521C25.6995 13.7912 24.5413 13.3827 23.3502 13.4H18.3502C17.6319 13.3933 16.9206 13.5414 16.2647 13.8342C15.6088 14.1271 15.0237 14.5578 14.5492 15.0971C14.0748 15.6365 13.7221 16.2717 13.5151 16.9595C13.3082 17.6474 13.252 18.3718 13.3502 19.0833C14.2381 26.0656 17.4269 32.5531 22.4129 37.5211C27.399 42.489 33.898 45.6542 40.8835 46.5167H41.5168C42.7459 46.5185 43.9325 46.0676 44.8502 45.25C45.3774 44.7784 45.7986 44.2003 46.0859 43.5539C46.3732 42.9074 46.5201 42.2074 46.5168 41.5V36.5C46.4964 35.3423 46.0748 34.2276 45.3241 33.3461C44.5733 32.4646 43.5399 31.871 42.4002 31.6667ZM43.2335 41.6667C43.2332 41.9033 43.1825 42.1372 43.0848 42.3527C42.9871 42.5682 42.8446 42.7605 42.6668 42.9167C42.4806 43.0775 42.2628 43.1976 42.0275 43.2693C41.7922 43.3411 41.5444 43.3629 41.3002 43.3333C35.0583 42.533 29.2606 39.6775 24.8214 35.2172C20.3822 30.7568 17.5542 24.9456 16.7835 18.7C16.757 18.4559 16.7802 18.2089 16.8518 17.974C16.9235 17.7391 17.042 17.5212 17.2002 17.3333C17.3564 17.1556 17.5486 17.0131 17.7641 16.9154C17.9797 16.8177 18.2135 16.767 18.4502 16.7667H23.4502C23.8377 16.758 24.2162 16.8848 24.5204 17.1251C24.8246 17.3654 25.0355 17.7043 25.1168 18.0833C25.1835 18.5389 25.2668 18.9889 25.3668 19.4333C25.5594 20.3119 25.8156 21.1753 26.1335 22.0167L23.8002 23.1C23.6007 23.1915 23.4212 23.3216 23.2721 23.4827C23.123 23.6437 23.0072 23.8327 22.9313 24.0387C22.8554 24.2446 22.821 24.4636 22.8299 24.6829C22.8389 24.9022 22.8911 25.1176 22.9835 25.3167C25.3822 30.4546 29.5122 34.5847 34.6502 36.9833C35.0559 37.15 35.5111 37.15 35.9168 36.9833C36.1247 36.909 36.3157 36.7941 36.4788 36.6453C36.6419 36.4965 36.7738 36.3168 36.8668 36.1167L37.9002 33.7833C38.7618 34.0915 39.6411 34.3475 40.5335 34.55C40.9779 34.65 41.4279 34.7333 41.8835 34.8C42.2626 34.8813 42.6014 35.0922 42.8417 35.3964C43.082 35.7006 43.2088 36.0791 43.2002 36.4667L43.2335 41.6667Z" fill="#F78E1E"/>
</g>
</g>
</svg>
