<svg width="60" height="60" viewBox="0 0 60 60" fill="none" xmlns="http://www.w3.org/2000/svg">
<g id="Frame 335044">
<rect width="60" height="60" rx="30" fill="white"/>
<g id="Construction / construction worker,worker,engineer,constructor,">
<path id="Vector" d="M43.3331 26.1167V25.8333C43.3432 22.9982 42.4437 20.2346 40.7667 17.9487C39.0898 15.6627 36.7238 13.9749 34.0165 13.1333H33.9165C32.5182 12.707 31.0613 12.5045 29.5998 12.5333C26.1195 12.7243 22.8433 14.2362 20.4398 16.7605C18.0363 19.2848 16.6867 22.6312 16.6665 26.1167C15.6898 26.4602 14.8439 27.0985 14.2455 27.9434C13.6471 28.7882 13.3257 29.798 13.3257 30.8333C13.3257 31.8686 13.6471 32.8784 14.2455 33.7233C14.8439 34.5682 15.6898 35.2064 16.6665 35.55C17.0097 38.8413 18.5646 41.8873 21.0289 44.0959C23.4932 46.3045 26.6907 47.5178 29.9998 47.5H30.3831C33.5831 47.3451 36.6246 46.0614 38.9679 43.8768C41.3112 41.6922 42.8046 38.7479 43.1831 35.5667C44.1713 35.2425 45.0337 34.6183 45.6505 33.781C46.2672 32.9437 46.6076 31.9349 46.6241 30.8951C46.6406 29.8553 46.3324 28.8362 45.7426 27.9797C45.1527 27.1232 44.3105 26.472 43.3331 26.1167ZM30.2998 44.1667C27.8871 44.2365 25.5306 43.4313 23.6651 41.8997C21.7996 40.3681 20.5511 38.2134 20.1498 35.8333H39.7665C39.3597 38.0865 38.2031 40.1359 36.4845 41.6488C34.7659 43.1616 32.5863 44.0489 30.2998 44.1667ZM41.6665 32.5H18.3331C17.8911 32.5 17.4672 32.3244 17.1546 32.0118C16.842 31.6993 16.6665 31.2754 16.6665 30.8333C16.6665 30.3913 16.842 29.9674 17.1546 29.6548C17.4672 29.3423 17.8911 29.1667 18.3331 29.1667H21.6665C22.1085 29.1667 22.5324 28.9911 22.845 28.6785C23.1575 28.3659 23.3331 27.942 23.3331 27.5C23.3331 27.058 23.1575 26.634 22.845 26.3215C22.5324 26.0089 22.1085 25.8333 21.6665 25.8333H19.9998C20.0744 24.1043 20.5686 22.4195 21.4396 20.9241C22.3107 19.4287 23.5326 18.1678 24.9998 17.25V22.5C24.9998 22.942 25.1754 23.3659 25.4879 23.6785C25.8005 23.9911 26.2244 24.1667 26.6665 24.1667C27.1085 24.1667 27.5324 23.9911 27.845 23.6785C28.1575 23.3659 28.3331 22.942 28.3331 22.5V15.9833C28.7855 15.9077 29.2418 15.8577 29.6998 15.8333H29.9998C30.5583 15.8412 31.1155 15.8913 31.6665 15.9833V22.5C31.6665 22.942 31.842 23.3659 32.1546 23.6785C32.4672 23.9911 32.8911 24.1667 33.3331 24.1667C33.7751 24.1667 34.1991 23.9911 34.5116 23.6785C34.8242 23.3659 34.9998 22.942 34.9998 22.5V17.2C35.7068 17.6094 36.3663 18.0957 36.9665 18.65C37.9274 19.5832 38.691 20.6999 39.2121 21.9338C39.7332 23.1678 40.001 24.4939 39.9998 25.8333H38.3331C37.8911 25.8333 37.4672 26.0089 37.1546 26.3215C36.842 26.634 36.6665 27.058 36.6665 27.5C36.6665 27.942 36.842 28.3659 37.1546 28.6785C37.4672 28.9911 37.8911 29.1667 38.3331 29.1667H41.6665C42.1085 29.1667 42.5324 29.3423 42.845 29.6548C43.1575 29.9674 43.3331 30.3913 43.3331 30.8333C43.3331 31.2754 43.1575 31.6993 42.845 32.0118C42.5324 32.3244 42.1085 32.5 41.6665 32.5Z" fill="#F78E1E"/>
</g>
</g>
</svg>
