<svg width="60" height="60" viewBox="0 0 60 60" fill="none" xmlns="http://www.w3.org/2000/svg">
<g id="Frame 335044">
<rect width="60" height="60" rx="30" fill="white"/>
<g id="Education / mortarboard">
<path id="Vector" d="M45.8168 26.9834L44.1501 26.0667L29.1501 17.7334H28.9668C28.8646 17.6902 28.7586 17.6567 28.6501 17.6334H28.3335H28.0335C27.9196 17.6567 27.808 17.6902 27.7001 17.7334H27.5168L12.5168 26.0667C12.2603 26.2121 12.0469 26.4229 11.8985 26.6776C11.7501 26.9323 11.6719 27.2219 11.6719 27.5167C11.6719 27.8115 11.7501 28.1011 11.8985 28.3558C12.0469 28.6105 12.2603 28.8213 12.5168 28.9667L16.6668 31.2667V39.1667C16.6668 40.4928 17.1936 41.7645 18.1313 42.7022C19.0689 43.6399 20.3407 44.1667 21.6668 44.1667H35.0001C36.3262 44.1667 37.598 43.6399 38.5357 42.7022C39.4733 41.7645 40.0001 40.4928 40.0001 39.1667V31.2667L43.3335 29.4V34.1667C43.3335 34.6087 43.5091 35.0326 43.8216 35.3452C44.1342 35.6578 44.5581 35.8334 45.0001 35.8334C45.4422 35.8334 45.8661 35.6578 46.1786 35.3452C46.4912 35.0326 46.6668 34.6087 46.6668 34.1667V28.4334C46.6663 28.138 46.5873 27.8481 46.438 27.5934C46.2886 27.3386 46.0742 27.1281 45.8168 26.9834ZM36.6668 39.1667C36.6668 39.6087 36.4912 40.0326 36.1786 40.3452C35.8661 40.6578 35.4422 40.8334 35.0001 40.8334H21.6668C21.2248 40.8334 20.8008 40.6578 20.4883 40.3452C20.1757 40.0326 20.0001 39.6087 20.0001 39.1667V33.1167L27.5168 37.2834L27.7668 37.3834H27.9168C28.0551 37.4008 28.1951 37.4008 28.3335 37.3834C28.4718 37.4008 28.6118 37.4008 28.7501 37.3834H28.9001C28.9886 37.3647 29.0732 37.3309 29.1501 37.2834L36.6668 33.1167V39.1667ZM28.3335 33.9334L16.7668 27.5L28.3335 21.0667L39.9001 27.5L28.3335 33.9334Z" fill="#F78E1E"/>
</g>
</g>
</svg>
