<svg width="60" height="60" viewBox="0 0 60 60" fill="none" xmlns="http://www.w3.org/2000/svg">
<g id="Frame 335045">
<rect width="60" height="60" rx="30" fill="white"/>
<g id="Business / money withdrawal">
<path id="Vector" d="M29.9998 30C29.0109 30 28.0442 30.2933 27.222 30.8427C26.3997 31.3921 25.7589 32.173 25.3804 33.0866C25.002 34.0002 24.903 35.0056 25.0959 35.9755C25.2888 36.9454 25.765 37.8363 26.4643 38.5355C27.1636 39.2348 28.0545 39.711 29.0244 39.9039C29.9943 40.0969 30.9996 39.9978 31.9133 39.6194C32.8269 39.241 33.6078 38.6001 34.1572 37.7779C34.7066 36.9556 34.9998 35.9889 34.9998 35C34.9998 33.6739 34.4731 32.4022 33.5354 31.4645C32.5977 30.5268 31.3259 30 29.9998 30ZM29.9998 36.6667C29.6702 36.6667 29.348 36.5689 29.0739 36.3858C28.7998 36.2027 28.5862 35.9424 28.46 35.6378C28.3339 35.3333 28.3009 34.9982 28.3652 34.6749C28.4295 34.3516 28.5882 34.0546 28.8213 33.8215C29.0544 33.5884 29.3514 33.4297 29.6747 33.3654C29.998 33.3011 30.3331 33.3341 30.6376 33.4602C30.9422 33.5864 31.2025 33.8 31.3856 34.0741C31.5688 34.3481 31.6665 34.6704 31.6665 35C31.6665 35.442 31.4909 35.866 31.1783 36.1785C30.8658 36.4911 30.4419 36.6667 29.9998 36.6667ZM28.8165 26.1833C28.975 26.3351 29.1619 26.454 29.3665 26.5333C29.566 26.6215 29.7817 26.6671 29.9998 26.6671C30.218 26.6671 30.4337 26.6215 30.6332 26.5333C30.8378 26.454 31.0247 26.3351 31.1832 26.1833L34.9998 22.4333C35.3225 22.1107 35.5038 21.673 35.5038 21.2167C35.5038 20.7603 35.3225 20.3227 34.9998 20C34.6772 19.6773 34.2395 19.4961 33.7832 19.4961C33.3268 19.4961 32.8892 19.6773 32.5665 20L31.6665 20.9833V15C31.6665 14.558 31.4909 14.1341 31.1783 13.8215C30.8658 13.5089 30.4419 13.3333 29.9998 13.3333C29.5578 13.3333 29.1339 13.5089 28.8213 13.8215C28.5088 14.1341 28.3332 14.558 28.3332 15V20.9833L27.4332 20C27.1105 19.6773 26.6728 19.4961 26.2165 19.4961C25.7602 19.4961 25.3225 19.6773 24.9998 20C24.6772 20.3227 24.4959 20.7603 24.4959 21.2167C24.4959 21.673 24.6772 22.1107 24.9998 22.4333L28.8165 26.1833ZM41.6665 35C41.6665 34.6704 41.5688 34.3481 41.3856 34.0741C41.2025 33.8 40.9422 33.5864 40.6376 33.4602C40.3331 33.3341 39.998 33.3011 39.6747 33.3654C39.3514 33.4297 39.0544 33.5884 38.8213 33.8215C38.5882 34.0546 38.4295 34.3516 38.3652 34.6749C38.3009 34.9982 38.3339 35.3333 38.46 35.6378C38.5862 35.9424 38.7998 36.2027 39.0739 36.3858C39.348 36.5689 39.6702 36.6667 39.9998 36.6667C40.4419 36.6667 40.8658 36.4911 41.1783 36.1785C41.4909 35.866 41.6665 35.442 41.6665 35ZM43.3332 23.3333H38.3332C37.8911 23.3333 37.4672 23.5089 37.1547 23.8215C36.8421 24.1341 36.6665 24.558 36.6665 25C36.6665 25.442 36.8421 25.866 37.1547 26.1785C37.4672 26.4911 37.8911 26.6667 38.3332 26.6667H43.3332C43.7752 26.6667 44.1991 26.8423 44.5117 27.1548C44.8242 27.4674 44.9998 27.8913 44.9998 28.3333V41.6667C44.9998 42.1087 44.8242 42.5326 44.5117 42.8452C44.1991 43.1578 43.7752 43.3333 43.3332 43.3333H16.6665C16.2245 43.3333 15.8006 43.1578 15.488 42.8452C15.1754 42.5326 14.9998 42.1087 14.9998 41.6667V28.3333C14.9998 27.8913 15.1754 27.4674 15.488 27.1548C15.8006 26.8423 16.2245 26.6667 16.6665 26.6667H21.6665C22.1085 26.6667 22.5325 26.4911 22.845 26.1785C23.1576 25.866 23.3332 25.442 23.3332 25C23.3332 24.558 23.1576 24.1341 22.845 23.8215C22.5325 23.5089 22.1085 23.3333 21.6665 23.3333H16.6665C15.3404 23.3333 14.0687 23.8601 13.131 24.7978C12.1933 25.7355 11.6665 27.0073 11.6665 28.3333V41.6667C11.6665 42.9928 12.1933 44.2645 13.131 45.2022C14.0687 46.1399 15.3404 46.6667 16.6665 46.6667H43.3332C44.6592 46.6667 45.931 46.1399 46.8687 45.2022C47.8064 44.2645 48.3332 42.9928 48.3332 41.6667V28.3333C48.3332 27.0073 47.8064 25.7355 46.8687 24.7978C45.931 23.8601 44.6592 23.3333 43.3332 23.3333ZM18.3332 35C18.3332 35.3296 18.4309 35.6519 18.6141 35.926C18.7972 36.2 19.0575 36.4137 19.362 36.5398C19.6666 36.666 20.0017 36.699 20.325 36.6347C20.6483 36.5703 20.9453 36.4116 21.1783 36.1785C21.4114 35.9454 21.5702 35.6485 21.6345 35.3252C21.6988 35.0019 21.6658 34.6667 21.5396 34.3622C21.4135 34.0577 21.1999 33.7974 20.9258 33.6142C20.6517 33.4311 20.3295 33.3333 19.9998 33.3333C19.5578 33.3333 19.1339 33.5089 18.8213 33.8215C18.5088 34.1341 18.3332 34.558 18.3332 35Z" fill="#F78E1E"/>
</g>
</g>
</svg>
