<svg width="60" height="60" viewBox="0 0 60 60" fill="none" xmlns="http://www.w3.org/2000/svg">
<g id="Frame 335044">
<rect width="60" height="60" rx="30" fill="white"/>
<g id="Education / badge">
<path id="Vector" d="M44.7831 38.75L40.2665 30.95C41.1907 29.2525 41.6722 27.3495 41.6665 25.4167C41.6665 22.3225 40.4373 19.355 38.2494 17.1671C36.0614 14.9792 33.094 13.75 29.9998 13.75C26.9056 13.75 23.9381 14.9792 21.7502 17.1671C19.5623 19.355 18.3331 22.3225 18.3331 25.4167C18.3274 27.3495 18.8089 29.2525 19.7331 30.95L15.2165 38.75C15.0699 39.0039 14.9929 39.2919 14.9932 39.585C14.9935 39.8781 15.071 40.166 15.2181 40.4195C15.3652 40.6731 15.5765 40.8834 15.8308 41.0292C16.0851 41.175 16.3733 41.2512 16.6665 41.25H21.4498L23.8831 45.35C23.9652 45.4859 24.0662 45.6094 24.1831 45.7167C24.4921 46.0145 24.904 46.1816 25.3331 46.1833H25.5665C25.8181 46.1489 26.0585 46.0574 26.2694 45.9159C26.4802 45.7743 26.656 45.5865 26.7831 45.3667L29.9998 39.8333L33.2165 45.4167C33.3455 45.6334 33.5221 45.818 33.7328 45.9566C33.9436 46.0951 34.183 46.1841 34.4331 46.2167H34.6665C35.1013 46.2193 35.52 46.0518 35.8331 45.75C35.9452 45.6488 36.0408 45.5307 36.1165 45.4L38.5498 41.3H43.3331C43.6268 41.3012 43.9156 41.2247 44.1702 41.0784C44.4248 40.932 44.6363 40.721 44.7831 40.4667C44.9389 40.2074 45.0211 39.9107 45.0211 39.6083C45.0211 39.3059 44.9389 39.0092 44.7831 38.75ZM25.3165 41.3L23.8331 38.8167C23.6871 38.5703 23.48 38.3657 23.2318 38.2227C22.9837 38.0796 22.7029 38.0029 22.4165 38H19.5331L21.9165 33.8667C23.5577 35.4481 25.6262 36.5142 27.8665 36.9333L25.3165 41.3ZM29.9998 33.75C28.3516 33.75 26.7405 33.2613 25.37 32.3456C23.9996 31.4299 22.9315 30.1284 22.3008 28.6057C21.6701 27.083 21.505 25.4074 21.8266 23.7909C22.1481 22.1744 22.9418 20.6895 24.1072 19.5241C25.2727 18.3587 26.7575 17.565 28.374 17.2435C29.9906 16.9219 31.6661 17.0869 33.1888 17.7177C34.7115 18.3484 36.013 19.4165 36.9287 20.7869C37.8444 22.1573 38.3331 23.7685 38.3331 25.4167C38.3331 27.6268 37.4552 29.7464 35.8924 31.3092C34.3295 32.872 32.2099 33.75 29.9998 33.75ZM37.5831 38C37.2967 38.0029 37.0159 38.0796 36.7678 38.2227C36.5196 38.3657 36.3125 38.5703 36.1665 38.8167L34.6831 41.3L32.1498 36.8833C34.3823 36.4557 36.4431 35.3905 38.0831 33.8167L40.4665 37.95L37.5831 38Z" fill="#F78E1E"/>
</g>
</g>
</svg>
