<svg width="60" height="60" viewBox="0 0 60 60" fill="none" xmlns="http://www.w3.org/2000/svg">
<g id="Frame 335045">
<rect width="60" height="60" rx="30" fill="white"/>
<g id="Business / cash">
<path id="Vector" d="M19.9998 28.3333C19.6702 28.3333 19.348 28.4311 19.0739 28.6142C18.7998 28.7973 18.5862 29.0576 18.46 29.3622C18.3339 29.6667 18.3009 30.0018 18.3652 30.3251C18.4295 30.6484 18.5882 30.9454 18.8213 31.1785C19.0544 31.4116 19.3514 31.5703 19.6747 31.6346C19.998 31.6989 20.3331 31.6659 20.6376 31.5398C20.9422 31.4136 21.2025 31.2 21.3856 30.9259C21.5688 30.6518 21.6665 30.3296 21.6665 30C21.6665 29.558 21.4909 29.134 21.1783 28.8215C20.8658 28.5089 20.4419 28.3333 19.9998 28.3333ZM39.9998 28.3333C39.6702 28.3333 39.348 28.4311 39.0739 28.6142C38.7998 28.7973 38.5862 29.0576 38.46 29.3622C38.3339 29.6667 38.3009 30.0018 38.3652 30.3251C38.4295 30.6484 38.5882 30.9454 38.8213 31.1785C39.0544 31.4116 39.3514 31.5703 39.6747 31.6346C39.998 31.6989 40.3331 31.6659 40.6376 31.5398C40.9422 31.4136 41.2025 31.2 41.3856 30.9259C41.5688 30.6518 41.6665 30.3296 41.6665 30C41.6665 29.558 41.4909 29.134 41.1783 28.8215C40.8658 28.5089 40.4419 28.3333 39.9998 28.3333ZM43.3332 18.3333H16.6665C15.3404 18.3333 14.0687 18.8601 13.131 19.7978C12.1933 20.7355 11.6665 22.0072 11.6665 23.3333V36.6666C11.6665 37.9927 12.1933 39.2645 13.131 40.2022C14.0687 41.1399 15.3404 41.6666 16.6665 41.6666H43.3332C44.6592 41.6666 45.931 41.1399 46.8687 40.2022C47.8064 39.2645 48.3332 37.9927 48.3332 36.6666V23.3333C48.3332 22.0072 47.8064 20.7355 46.8687 19.7978C45.931 18.8601 44.6592 18.3333 43.3332 18.3333ZM44.9998 36.6666C44.9998 37.1087 44.8242 37.5326 44.5117 37.8452C44.1991 38.1577 43.7752 38.3333 43.3332 38.3333H16.6665C16.2245 38.3333 15.8006 38.1577 15.488 37.8452C15.1754 37.5326 14.9998 37.1087 14.9998 36.6666V23.3333C14.9998 22.8913 15.1754 22.4674 15.488 22.1548C15.8006 21.8422 16.2245 21.6666 16.6665 21.6666H43.3332C43.7752 21.6666 44.1991 21.8422 44.5117 22.1548C44.8242 22.4674 44.9998 22.8913 44.9998 23.3333V36.6666ZM29.9998 25C29.0109 25 28.0442 25.2932 27.222 25.8426C26.3997 26.392 25.7589 27.1729 25.3804 28.0866C25.002 29.0002 24.903 30.0055 25.0959 30.9754C25.2888 31.9453 25.765 32.8363 26.4643 33.5355C27.1636 34.2348 28.0545 34.711 29.0244 34.9039C29.9943 35.0968 30.9996 34.9978 31.9133 34.6194C32.8269 34.2409 33.6078 33.6001 34.1572 32.7778C34.7066 31.9556 34.9998 30.9889 34.9998 30C34.9998 28.6739 34.4731 27.4021 33.5354 26.4644C32.5977 25.5268 31.3259 25 29.9998 25ZM29.9998 31.6666C29.6702 31.6666 29.348 31.5689 29.0739 31.3858C28.7998 31.2026 28.5862 30.9423 28.46 30.6378C28.3339 30.3332 28.3009 29.9981 28.3652 29.6748C28.4295 29.3515 28.5882 29.0546 28.8213 28.8215C29.0544 28.5884 29.3514 28.4296 29.6747 28.3653C29.998 28.301 30.3331 28.334 30.6376 28.4602C30.9422 28.5863 31.2025 28.7999 31.3856 29.074C31.5688 29.3481 31.6665 29.6703 31.6665 30C31.6665 30.442 31.4909 30.8659 31.1783 31.1785C30.8658 31.4911 30.4419 31.6666 29.9998 31.6666Z" fill="#F78E1E"/>
</g>
</g>
</svg>
