<svg width="60" height="60" viewBox="0 0 60 60" fill="none" xmlns="http://www.w3.org/2000/svg">
<g id="Frame 335044">
<rect width="60" height="60" rx="30" fill="white"/>
<g id="User Interface / House">
<path id="Vector" d="M43.3335 23.3333L33.3335 14.5667C32.4168 13.7468 31.23 13.2935 30.0002 13.2935C28.7703 13.2935 27.5835 13.7468 26.6668 14.5667L16.6668 23.3333C16.1374 23.8068 15.715 24.3876 15.4276 25.0371C15.1402 25.6866 14.9945 26.3898 15.0002 27.1V41.6667C15.0002 42.9928 15.5269 44.2645 16.4646 45.2022C17.4023 46.1399 18.6741 46.6667 20.0002 46.6667H40.0002C41.3262 46.6667 42.598 46.1399 43.5357 45.2022C44.4734 44.2645 45.0002 42.9928 45.0002 41.6667V27.0833C45.0034 26.3759 44.8566 25.6759 44.5693 25.0295C44.282 24.383 43.8608 23.8049 43.3335 23.3333ZM33.3335 43.3333H26.6668V35C26.6668 34.558 26.8424 34.1341 27.155 33.8215C27.4675 33.5089 27.8915 33.3333 28.3335 33.3333H31.6668C32.1089 33.3333 32.5328 33.5089 32.8453 33.8215C33.1579 34.1341 33.3335 34.558 33.3335 35V43.3333ZM41.6668 41.6667C41.6668 42.1087 41.4912 42.5326 41.1787 42.8452C40.8661 43.1577 40.4422 43.3333 40.0002 43.3333H36.6668V35C36.6668 33.6739 36.14 32.4022 35.2024 31.4645C34.2647 30.5268 32.9929 30 31.6668 30H28.3335C27.0074 30 25.7356 30.5268 24.798 31.4645C23.8603 32.4022 23.3335 33.6739 23.3335 35V43.3333H20.0002C19.5581 43.3333 19.1342 43.1577 18.8216 42.8452C18.5091 42.5326 18.3335 42.1087 18.3335 41.6667V27.0833C18.3338 26.8467 18.3845 26.6128 18.4822 26.3973C18.5799 26.1818 18.7224 25.9895 18.9002 25.8333L28.9002 17.0833C29.2043 16.8161 29.5953 16.6688 30.0002 16.6688C30.405 16.6688 30.796 16.8161 31.1002 17.0833L41.1002 25.8333C41.2779 25.9895 41.4204 26.1818 41.5181 26.3973C41.6158 26.6128 41.6665 26.8467 41.6668 27.0833V41.6667Z" fill="#F78E1E"/>
</g>
</g>
</svg>
