<svg width="60" height="60" viewBox="0 0 60 60" fill="none" xmlns="http://www.w3.org/2000/svg">
<g id="Frame 335044">
<rect width="60" height="60" rx="30" fill="white"/>
<g id="Construction / perforator,drill machine,construction tool,construction,drill,">
<path id="Vector" d="M41.6668 16.6667H25.0002C24.5581 16.6667 24.1342 16.8423 23.8217 17.1548C23.5091 17.4674 23.3335 17.8913 23.3335 18.3333V21.6667H15.0002C14.5581 21.6667 14.1342 21.8423 13.8217 22.1548C13.5091 22.4674 13.3335 22.8913 13.3335 23.3333C13.3335 23.7753 13.5091 24.1993 13.8217 24.5118C14.1342 24.8244 14.5581 25 15.0002 25H23.3335V31.6667C23.3335 32.1087 23.5091 32.5326 23.8217 32.8452C24.1342 33.1577 24.5581 33.3333 25.0002 33.3333C25.4422 33.3333 25.8661 33.1577 26.1787 32.8452C26.4912 32.5326 26.6668 32.1087 26.6668 31.6667V30H33.3335V41.6667C33.3335 42.1087 33.5091 42.5326 33.8217 42.8452C34.1342 43.1577 34.5581 43.3333 35.0002 43.3333H38.3335C39.6596 43.3333 40.9314 42.8065 41.869 41.8689C42.8067 40.9312 43.3335 39.6594 43.3335 38.3333V29.7C44.3061 29.3561 45.1485 28.7199 45.7453 27.8784C46.342 27.037 46.6639 26.0316 46.6668 25V21.6667C46.6668 20.3406 46.14 19.0688 45.2024 18.1311C44.2647 17.1934 42.9929 16.6667 41.6668 16.6667V16.6667ZM40.0002 38.3333C40.0002 38.7753 39.8246 39.1993 39.512 39.5118C39.1994 39.8244 38.7755 40 38.3335 40H36.6668V30H40.0002V38.3333ZM43.3335 25C43.3335 25.442 43.1579 25.8659 42.8453 26.1785C42.5328 26.4911 42.1089 26.6667 41.6668 26.6667H26.6668V20H36.6668V21.6667C36.6668 22.1087 36.8424 22.5326 37.155 22.8452C37.4675 23.1577 37.8915 23.3333 38.3335 23.3333C38.7755 23.3333 39.1994 23.1577 39.512 22.8452C39.8246 22.5326 40.0002 22.1087 40.0002 21.6667V20H41.6668C42.1089 20 42.5328 20.1756 42.8453 20.4881C43.1579 20.8007 43.3335 21.2246 43.3335 21.6667V25Z" fill="#F78E1E"/>
</g>
</g>
</svg>
